<svg xmlns="http://www.w3.org/2000/svg" xmlns:xlink="http://www.w3.org/1999/xlink" width="173" zoomAndPan="magnify" viewBox="0 0 129.75 60.75" height="81" preserveAspectRatio="xMidYMid meet" version="1.0"><defs><g/></defs><g fill="#e51e2a" fill-opacity="1"><g transform="translate(18.321442, 43.130702)"><g><path d="M 21.5625 -14.59375 L 28.5625 -14.59375 L 28.5625 -3 C 26.957031 -1.851562 25.113281 -0.972656 23.03125 -0.359375 C 20.957031 0.253906 18.878906 0.5625 16.796875 0.5625 C 13.867188 0.5625 11.226562 -0.0546875 8.875 -1.296875 C 6.53125 -2.535156 4.691406 -4.257812 3.359375 -6.46875 C 2.023438 -8.6875 1.359375 -11.195312 1.359375 -14 C 1.359375 -16.800781 2.023438 -19.304688 3.359375 -21.515625 C 4.691406 -23.734375 6.546875 -25.460938 8.921875 -26.703125 C 11.296875 -27.941406 13.972656 -28.5625 16.953125 -28.5625 C 19.566406 -28.5625 21.914062 -28.117188 24 -27.234375 C 26.082031 -26.359375 27.816406 -25.09375 29.203125 -23.4375 L 24.15625 -18.875 C 22.257812 -20.957031 19.992188 -22 17.359375 -22 C 14.960938 -22 13.03125 -21.269531 11.5625 -19.8125 C 10.09375 -18.363281 9.359375 -16.425781 9.359375 -14 C 9.359375 -12.457031 9.691406 -11.078125 10.359375 -9.859375 C 11.023438 -8.648438 11.957031 -7.703125 13.15625 -7.015625 C 14.351562 -6.335938 15.726562 -6 17.28125 -6 C 18.800781 -6 20.226562 -6.304688 21.5625 -6.921875 Z M 21.5625 -14.59375 "/></g></g></g><g fill="#e51e2a" fill-opacity="1"><g transform="translate(46.077789, 43.130702)"><g><path d="M 25.28125 -6.125 L 25.28125 0 L 2.796875 0 L 2.796875 -28 L 24.765625 -28 L 24.765625 -21.875 L 10.640625 -21.875 L 10.640625 -17.15625 L 23.078125 -17.15625 L 23.078125 -11.234375 L 10.640625 -11.234375 L 10.640625 -6.125 Z M 25.28125 -6.125 "/></g></g></g><g fill="#ffffff" fill-opacity="1"><g transform="translate(69.917703, 43.130702)"><g><path d="M 10.71875 -20.875 L 15.875 -20.875 L 15.875 -15.203125 L 10.921875 -15.203125 L 10.921875 0 L 3.3125 0 L 3.3125 -15.203125 L 0.15625 -15.203125 L 0.15625 -20.875 L 3.3125 -20.875 L 3.3125 -21.4375 C 3.3125 -24.082031 4.101562 -26.175781 5.6875 -27.71875 C 7.28125 -29.269531 9.503906 -30.046875 12.359375 -30.046875 C 13.316406 -30.046875 14.25 -29.953125 15.15625 -29.765625 C 16.0625 -29.578125 16.8125 -29.296875 17.40625 -28.921875 L 15.515625 -23.5625 C 14.773438 -23.988281 14.015625 -24.203125 13.234375 -24.203125 C 12.441406 -24.203125 11.820312 -23.960938 11.375 -23.484375 C 10.9375 -23.003906 10.71875 -22.296875 10.71875 -21.359375 Z M 10.71875 -20.875 "/></g></g></g><g fill="#ffffff" fill-opacity="1"><g transform="translate(83.115657, 43.130702)"><g><path d="M 2.4375 -21.6875 L 10.046875 -21.6875 L 10.046875 0 L 2.4375 0 Z M 6.234375 -24.078125 C 4.847656 -24.078125 3.726562 -24.460938 2.875 -25.234375 C 2.019531 -26.015625 1.59375 -26.976562 1.59375 -28.125 C 1.59375 -29.269531 2.019531 -30.226562 2.875 -31 C 3.726562 -31.769531 4.847656 -32.15625 6.234375 -32.15625 C 7.617188 -32.15625 8.738281 -31.785156 9.59375 -31.046875 C 10.445312 -30.316406 10.875 -29.378906 10.875 -28.234375 C 10.875 -27.035156 10.445312 -26.039062 9.59375 -25.25 C 8.738281 -24.46875 7.617188 -24.078125 6.234375 -24.078125 Z M 6.234375 -24.078125 "/></g></g></g><g fill="#ffffff" fill-opacity="1"><g transform="translate(92.594012, 43.130702)"><g><path d="M 17.40625 -0.875 C 16.757812 -0.476562 15.976562 -0.175781 15.0625 0.03125 C 14.144531 0.25 13.164062 0.359375 12.125 0.359375 C 9.289062 0.359375 7.113281 -0.332031 5.59375 -1.71875 C 4.070312 -3.101562 3.3125 -5.171875 3.3125 -7.921875 L 3.3125 -15.203125 L 0.15625 -15.203125 L 0.15625 -20.875 L 3.3125 -20.875 L 3.3125 -26.515625 L 10.921875 -26.515625 L 10.921875 -20.875 L 15.875 -20.875 L 15.875 -15.203125 L 10.921875 -15.203125 L 10.921875 -8 C 10.921875 -7.226562 11.125 -6.617188 11.53125 -6.171875 C 11.945312 -5.734375 12.503906 -5.515625 13.203125 -5.515625 C 14.078125 -5.515625 14.847656 -5.742188 15.515625 -6.203125 Z M 17.40625 -0.875 "/></g></g></g></svg>